# xmcd CD database file
#
# Track frame offsets:
#	150
#	11769
#	24300
#	39429
#	53513
#	67010
#	81474
#	98557
#	115918
#	126304
#
# Disc length: 1878 seconds
#
# Revision: 0
# Processed by: cddbd v1.5.1PL2 Copyright (c) Steve Scherf et al.
# Submitted via: CDex 1.51
#
DISCID=7c07540a
DTITLE=Commander Cody And His Lost  Planet Airmen - The Best Of Commander Cody And His Lost Planet Airmen Live
DYEAR=2006
DGENRE=Rockabilly
TTITLE0=Riot In Cell Block No. 9
TTITLE1=Hot Rod Lincoln
TTITLE2=Down To Seeds And Stems Again Blues
TTITLE3=Take Me Back To Tulsa
TTITLE4=Jailhouse Rock
TTITLE5=Crying Time
TTITLE6=What's The Matter Now
TTITLE7=Beat Me Daddy, Eight To The Bar
TTITLE8=Lawdy Miss Clawdy
TTITLE9=Truck Drivin' Man
EXTD=YEAR: 2006
EXTT0=
EXTT1=
EXTT2=
EXTT3=
EXTT4=
EXTT5=
EXTT6=
EXTT7=
EXTT8=
EXTT9=
PLAYORDER=
